<mxfile host="app.diagrams.net" agent="Mozilla/5.0 (Windows NT 10.0; Win64; x64) AppleWebKit/537.36 (KHTML, like Gecko) Chrome/137.0.0.0 Safari/537.36" version="27.1.6" pages="2">
  <diagram name="ページ1" id="CPrcEd7IFdf7QdNZPcKS">
    <mxGraphModel dx="1281" dy="562" grid="1" gridSize="10" guides="1" tooltips="1" connect="1" arrows="1" fold="1" page="1" pageScale="1" pageWidth="827" pageHeight="1169" math="0" shadow="0">
      <root>
        <mxCell id="0" />
        <mxCell id="1" parent="0" />
        <mxCell id="P1QAiCrTCZGCidp8T9WZ-1" value="" style="rounded=0;whiteSpace=wrap;html=1;" vertex="1" parent="1">
          <mxGeometry x="40" y="40" width="620" height="460" as="geometry" />
        </mxCell>
        <mxCell id="P1QAiCrTCZGCidp8T9WZ-12" value="" style="rounded=1;whiteSpace=wrap;html=1;" vertex="1" parent="1">
          <mxGeometry x="540" y="210" width="90" height="30" as="geometry" />
        </mxCell>
        <mxCell id="P1QAiCrTCZGCidp8T9WZ-13" value="" style="rounded=1;whiteSpace=wrap;html=1;" vertex="1" parent="1">
          <mxGeometry x="340" y="210" width="90" height="30" as="geometry" />
        </mxCell>
        <mxCell id="P1QAiCrTCZGCidp8T9WZ-8" value="" style="rounded=1;whiteSpace=wrap;html=1;" vertex="1" parent="1">
          <mxGeometry x="140" y="210" width="90" height="30" as="geometry" />
        </mxCell>
        <mxCell id="P1QAiCrTCZGCidp8T9WZ-2" value="" style="endArrow=none;html=1;rounded=0;" edge="1" parent="1">
          <mxGeometry width="50" height="50" relative="1" as="geometry">
            <mxPoint x="40" y="100" as="sourcePoint" />
            <mxPoint x="660" y="100" as="targetPoint" />
          </mxGeometry>
        </mxCell>
        <mxCell id="P1QAiCrTCZGCidp8T9WZ-4" value="サイトの名前" style="rounded=0;whiteSpace=wrap;html=1;" vertex="1" parent="1">
          <mxGeometry x="60" y="50" width="110" height="40" as="geometry" />
        </mxCell>
        <mxCell id="P1QAiCrTCZGCidp8T9WZ-5" value="課題A" style="rounded=0;whiteSpace=wrap;html=1;" vertex="1" parent="1">
          <mxGeometry x="70" y="130" width="160" height="90" as="geometry" />
        </mxCell>
        <mxCell id="P1QAiCrTCZGCidp8T9WZ-6" value="課題B" style="rounded=0;whiteSpace=wrap;html=1;" vertex="1" parent="1">
          <mxGeometry x="270" y="130" width="160" height="90" as="geometry" />
        </mxCell>
        <mxCell id="P1QAiCrTCZGCidp8T9WZ-7" value="課題C" style="rounded=0;whiteSpace=wrap;html=1;" vertex="1" parent="1">
          <mxGeometry x="470" y="130" width="160" height="90" as="geometry" />
        </mxCell>
        <mxCell id="P1QAiCrTCZGCidp8T9WZ-9" value="詳細を表示" style="text;html=1;align=center;verticalAlign=middle;resizable=0;points=[];autosize=1;strokeColor=none;fillColor=none;" vertex="1" parent="1">
          <mxGeometry x="145" y="216" width="80" height="30" as="geometry" />
        </mxCell>
        <mxCell id="P1QAiCrTCZGCidp8T9WZ-10" value="詳細を表示" style="text;html=1;align=center;verticalAlign=middle;resizable=0;points=[];autosize=1;strokeColor=none;fillColor=none;" vertex="1" parent="1">
          <mxGeometry x="345" y="216" width="80" height="30" as="geometry" />
        </mxCell>
        <mxCell id="P1QAiCrTCZGCidp8T9WZ-11" value="詳細を表示" style="text;html=1;align=center;verticalAlign=middle;resizable=0;points=[];autosize=1;strokeColor=none;fillColor=none;" vertex="1" parent="1">
          <mxGeometry x="545" y="216" width="80" height="30" as="geometry" />
        </mxCell>
        <mxCell id="P1QAiCrTCZGCidp8T9WZ-14" value="トップページに戻る" style="rounded=1;whiteSpace=wrap;html=1;" vertex="1" parent="1">
          <mxGeometry x="310" y="400" width="80" height="30" as="geometry" />
        </mxCell>
      </root>
    </mxGraphModel>
  </diagram>
  <diagram id="jqFMASwn-q37mvudYhID" name="ページ2">
    <mxGraphModel dx="1281" dy="562" grid="1" gridSize="10" guides="1" tooltips="1" connect="1" arrows="1" fold="1" page="1" pageScale="1" pageWidth="827" pageHeight="1169" math="0" shadow="0">
      <root>
        <mxCell id="0" />
        <mxCell id="1" parent="0" />
        <mxCell id="evG1pXa2wYDhyRVNVmSa-1" value="" style="rounded=0;whiteSpace=wrap;html=1;" vertex="1" parent="1">
          <mxGeometry x="30" y="100" width="600" height="410" as="geometry" />
        </mxCell>
        <mxCell id="evG1pXa2wYDhyRVNVmSa-3" value="" style="endArrow=none;html=1;rounded=0;" edge="1" parent="1">
          <mxGeometry width="50" height="50" relative="1" as="geometry">
            <mxPoint x="30" y="160" as="sourcePoint" />
            <mxPoint x="630" y="160" as="targetPoint" />
          </mxGeometry>
        </mxCell>
        <mxCell id="Hyvp0RmYNWM8YzxDy21b-1" value="サイトの名前" style="rounded=0;whiteSpace=wrap;html=1;" vertex="1" parent="1">
          <mxGeometry x="53" y="110" width="110" height="40" as="geometry" />
        </mxCell>
        <mxCell id="Hyvp0RmYNWM8YzxDy21b-2" value="課題Aについて" style="text;html=1;align=center;verticalAlign=middle;resizable=0;points=[];autosize=1;strokeColor=none;fillColor=none;" vertex="1" parent="1">
          <mxGeometry x="280" y="170" width="100" height="30" as="geometry" />
        </mxCell>
        <mxCell id="Hyvp0RmYNWM8YzxDy21b-3" value="" style="rounded=0;whiteSpace=wrap;html=1;" vertex="1" parent="1">
          <mxGeometry x="90" y="210" width="480" height="110" as="geometry" />
        </mxCell>
      </root>
    </mxGraphModel>
  </diagram>
</mxfile>
